<svg xmlns="http://www.w3.org/2000/svg" viewBox="0 0 24 24"><path fill="white" d="M22,10H19.74a8.28,8.28,0,0,0-.85-2.06l1.6-1.6a1,1,0,0,0,0-1.41L19.07,3.51a1,1,0,0,0-1.41,0l-1.6,1.6A8.28,8.28,0,0,0,14,4.26V2a1,1,0,0,0-1-1H11a1,1,0,0,0-1,1V4.26a8.28,8.28,0,0,0-2.06.85l-1.6-1.6a1,1,0,0,0-1.41,0L3.51,4.93a1,1,0,0,0,0,1.41l1.6,1.6A8.28,8.28,0,0,0,4.26,10H2a1,1,0,0,0-1,1v2a1,1,0,0,0,1,1H4.26a8.28,8.28,0,0,0,.85,2.06l-1.6,1.6a1,1,0,0,0,0,1.41l1.42,1.42a1,1,0,0,0,1.41,0l1.6-1.6a8.28,8.28,0,0,0,2.06.85V22a1,1,0,0,0,1,1h2a1,1,0,0,0,1-1V19.74a8.28,8.28,0,0,0,2.06-.85l1.6,1.6a1,1,0,0,0,1.41,0l1.42-1.42a1,1,0,0,0,0-1.41l-1.6-1.6A8.28,8.28,0,0,0,19.74,14H22a1,1,0,0,0,1-1V11A1,1,0,0,0,22,10ZM12,16a4,4,0,1,1,4-4A4,4,0,0,1,12,16Z"/></svg>