<svg xmlns="http://www.w3.org/2000/svg" viewBox="0 0 211.92 533.67"><path d="M53 317.88c7.94 1.12 21.31 3 31.85 3.84a7.09 7.09 0 007.36-9c-2.53-9.13-2.79-21.31 13.77-21.31s16.3 12.18 13.78 21.31a7.08 7.08 0 007.35 9c10.54-.85 23.91-2.72 31.85-3.84v106c-7.94-1.11-21.31-3-31.85-3.84a7.08 7.08 0 00-7.35 9c2.52 9.13 2.78 21.3-13.78 21.3S89.66 438.16 92.19 429a7.09 7.09 0 00-7.36-9c-10.54.86-23.91 2.73-31.85 3.84-1.11-7.94-3-21.31-3.84-31.85a7.08 7.08 0 019-7.35c9.13 2.52 21.3 2.78 21.3-13.78s-12.17-16.29-21.3-13.77a7.09 7.09 0 01-9-7.36c.86-10.54 2.73-23.9 3.86-31.85z" fill="#aecbf8"/><path d="M53 317.88c1.11-7.94 3-21.31 3.84-31.85a7.08 7.08 0 00-9-7.35c-9.14 2.52-21.31 2.78-21.31-13.78s12.17-16.3 21.31-13.77a7.09 7.09 0 009-7.36c-.84-10.54-2.75-23.91-3.84-31.85 7.94-1.11 21.31-3 31.85-3.84a7.09 7.09 0 017.36 9c-2.53 9.13-2.79 21.3 13.77 21.3s16.3-12.17 13.78-21.3a7.08 7.08 0 017.35-9c10.54.86 23.91 2.73 31.85 3.84-1.11 7.94 0 99.34 0 106-7.94 1.12-21.31 3-31.85 3.84a7.08 7.08 0 01-7.35-9c2.52-9.13 2.78-21.31-13.78-21.31s-16.3 12.18-13.77 21.31a7.09 7.09 0 01-7.36 9c-10.56-.89-23.93-2.76-31.85-3.88z" fill="#86b0f4"/><path d="M53 423.84c7.94-1.11 21.31-3 31.85-3.84a7.09 7.09 0 017.36 9c-2.53 9.13-2.79 21.3 13.77 21.3s16.3-12.17 13.78-21.3a7.08 7.08 0 017.35-9c10.54.86 23.91 2.73 31.85 3.84v106c-7.94 1.11-21.31 3-31.85 3.84a7.08 7.08 0 01-7.35-9c2.52-9.13 2.78-21.31-13.78-21.31s-16.3 12.18-13.77 21.31a7.09 7.09 0 01-7.36 9c-10.54-.86-23.91-2.73-31.85-3.84 1.11-7.95 3-21.32 3.84-31.86a7.08 7.08 0 00-9-7.35c-9.14 2.52-21.31 2.78-21.31-13.78s12.17-16.29 21.31-13.77a7.08 7.08 0 009-7.35c-.84-10.58-2.75-23.94-3.84-31.89z" fill="#d7e5fb"/><path d="M119.74 217.12a7.22 7.22 0 011.19-6.26 7 7 0 016.16-2.78c1.72.13 3.54.3 5.36.5 9.41 1 19.84 2.41 26.49 3.34.56-4.07 1.33-9.6 2.09-15.4a106 106 0 10-110.14 0c.73 5.8 1.53 11.33 2.09 15.4 6.66-.93 17.09-2.38 26.49-3.34 1.82-.2 3.64-.37 5.37-.5a7 7 0 016.16 2.78 7.22 7.22 0 011.2 6.26c-2.52 9.11-2.79 21.29 13.77 21.29s16.28-12.18 13.77-21.29zM79.47 53A26.49 26.49 0 11106 79.47 26.48 26.48 0 0179.47 53z" fill="#357ced"/></svg>