<svg xmlns="http://www.w3.org/2000/svg" viewBox="0 0 24 24"><path fill="#fff" d="M22 10h-2.26a8.28 8.28 0 00-.85-2.06l1.6-1.6a1 1 0 000-1.41l-1.42-1.42a1 1 0 00-1.41 0l-1.6 1.6A8.28 8.28 0 0014 4.26V2a1 1 0 00-1-1h-2a1 1 0 00-1 1v2.26a8.28 8.28 0 00-2.06.85l-1.6-1.6a1 1 0 00-1.41 0L3.51 4.93a1 1 0 000 1.41l1.6 1.6A8.28 8.28 0 004.26 10H2a1 1 0 00-1 1v2a1 1 0 001 1h2.26a8.28 8.28 0 00.85 2.06l-1.6 1.6a1 1 0 000 1.41l1.42 1.42a1 1 0 001.41 0l1.6-1.6a8.28 8.28 0 002.06.85V22a1 1 0 001 1h2a1 1 0 001-1v-2.26a8.28 8.28 0 002.06-.85l1.6 1.6a1 1 0 001.41 0l1.42-1.42a1 1 0 000-1.41l-1.6-1.6a8.28 8.28 0 00.85-2.06H22a1 1 0 001-1v-2a1 1 0 00-1-1zm-10 6a4 4 0 114-4 4 4 0 01-4 4z"/></svg>